<svg width="35" height="35" viewBox="0 0 35 35" fill="none" xmlns="http://www.w3.org/2000/svg">
<g clip-path="url(#clip0_1_19)">
<path d="M34.5829 17.8274C34.5829 16.3935 34.4666 15.3471 34.2148 14.262H17.8406V20.734H27.4519C27.2582 22.3424 26.2118 24.7646 23.8864 26.3923L23.8538 26.6089L29.031 30.6197L29.3897 30.6555C32.6839 27.6131 34.5829 23.1369 34.5829 17.8274Z" fill="#4285F4"/>
<path d="M17.8407 34.8797C22.5494 34.8797 26.5024 33.3295 29.3897 30.6554L23.8864 26.3922C22.4138 27.4193 20.4372 28.1362 17.8407 28.1362C13.2288 28.1362 9.31454 25.094 7.91922 20.8891L7.7147 20.9065L2.33137 25.0727L2.26097 25.2684C5.12884 30.9654 11.0197 34.8797 17.8407 34.8797Z" fill="#34A853"/>
<path d="M7.91922 20.8891C7.55105 19.804 7.33798 18.6413 7.33798 17.4399C7.33798 16.2384 7.55105 15.0758 7.89985 13.9907L7.8901 13.7596L2.43931 9.52643L2.26097 9.61126C1.07899 11.9754 0.400764 14.6302 0.400764 17.4399C0.400764 20.2497 1.07899 22.9043 2.26097 25.2684L7.91922 20.8891Z" fill="#FBBC05"/>
<path d="M17.8406 6.74338C21.1154 6.74338 23.3244 8.15794 24.584 9.34006L29.5059 4.53437C26.4831 1.72462 22.5493 0 17.8406 0C11.0197 0 5.12884 3.91426 2.26097 9.61124L7.89985 13.9907C9.31454 9.78571 13.2288 6.74338 17.8406 6.74338Z" fill="#EB4335"/>
</g>
<defs>
<clipPath id="clip0_1_19">
<rect width="35" height="35" fill="white"/>
</clipPath>
</defs>
</svg>
